<?xml version="1.0" encoding="UTF-8"?>
<svg id="Layer_1" data-name="Layer 1" xmlns="http://www.w3.org/2000/svg" viewBox="0 0 200 200">
  <defs>
    <style>
      .cls-1 {
        isolation: isolate;
      }

      .cls-2 {
        fill: #fff;
      }
    </style>
  </defs>
  <rect width="200" height="200"/>
  <g class="cls-1">
    <path class="cls-2" d="M32.45,88c-3.46,0-5.83,1.47-7.12,4.4-.67,1.55-1,3.53-1,5.94v21.11h-10.16v-38.93h9.84v5.69c1.31-2,2.55-3.45,3.72-4.33,2.1-1.57,4.76-2.36,7.98-2.36,4.03,0,7.33,1.05,9.89,3.17s3.85,5.61,3.85,10.5v26.26h-10.45v-23.72c0-2.05-.27-3.63-.82-4.72-1-2-2.91-3.01-5.72-3.01Z"/>
    <path class="cls-2" d="M91.38,85.38c3.29,4.13,4.94,9,4.94,14.63s-1.65,10.62-4.94,14.69c-3.29,4.07-8.29,6.1-14.99,6.1s-11.7-2.03-14.99-6.1c-3.29-4.07-4.94-8.96-4.94-14.69s1.65-10.51,4.94-14.63c3.29-4.13,8.29-6.19,14.99-6.19s11.7,2.06,14.99,6.19ZM76.35,87.82c-2.98,0-5.28,1.06-6.89,3.17-1.61,2.11-2.42,5.12-2.42,9.04s.8,6.93,2.42,9.05c1.61,2.12,3.91,3.18,6.89,3.18s5.27-1.06,6.87-3.18c1.6-2.12,2.4-5.14,2.4-9.05s-.8-6.92-2.4-9.04c-1.6-2.11-3.89-3.17-6.87-3.17Z"/>
    <path class="cls-2" d="M121.97,88c-3.46,0-5.83,1.47-7.12,4.4-.67,1.55-1,3.53-1,5.94v21.11h-10.16v-38.93h9.84v5.69c1.31-2,2.55-3.45,3.72-4.33,2.1-1.57,4.76-2.36,7.98-2.36,4.03,0,7.33,1.05,9.89,3.17,2.56,2.11,3.85,5.61,3.85,10.5v26.26h-10.45v-23.72c0-2.05-.27-3.63-.82-4.72-1-2-2.91-3.01-5.72-3.01Z"/>
    <path class="cls-2" d="M180.9,85.38c3.29,4.13,4.94,9,4.94,14.63s-1.65,10.62-4.94,14.69c-3.29,4.07-8.29,6.1-14.99,6.1s-11.7-2.03-14.99-6.1c-3.29-4.07-4.94-8.96-4.94-14.69s1.65-10.51,4.94-14.63c3.29-4.13,8.29-6.19,14.99-6.19s11.7,2.06,14.99,6.19ZM165.87,87.82c-2.98,0-5.28,1.06-6.89,3.17-1.61,2.11-2.42,5.12-2.42,9.04s.81,6.93,2.42,9.05c1.61,2.12,3.91,3.18,6.89,3.18s5.27-1.06,6.87-3.18c1.6-2.12,2.4-5.14,2.4-9.05s-.8-6.92-2.4-9.04c-1.6-2.11-3.89-3.17-6.87-3.17Z"/>
  </g>
</svg>